<svg xmlns="http://www.w3.org/2000/svg" id="prefix__link-m" width="18" height="18" viewBox="0 0 18 18">
    <path id="prefix__Path_325" d="M0 0h18v18H0z" data-name="Path 325" style="fill:none"/>
    <path id="prefix__Path_326" d="M14.036 11.914l-1.06-1.061 1.06-1.061A3 3 0 1 0 9.793 5.55L8.732 6.611 7.672 5.55l1.06-1.06a4.5 4.5 0 1 1 6.368 6.363l-1.061 1.06zm-2.122 2.122L10.853 15.1A4.5 4.5 0 1 1 4.49 8.732l1.06-1.06 1.061 1.06L5.55 9.793a3 3 0 0 0 4.243 4.243l1.061-1.06zm0-7.425l1.061 1.061-5.3 5.3-1.061-1.06 5.3-5.3z" data-name="Path 326" transform="translate(-.793 -.793)" style="fill:#1f32fa"/>
</svg>
