<svg id="people_alt-24px" xmlns="http://www.w3.org/2000/svg" width="24" height="24" viewBox="0 0 24 24">
  <g id="Group_2787" data-name="Group 2787">
    <rect id="Rectangle_364" data-name="Rectangle 364" width="24" height="24" fill="none"/>
  </g>
  <g id="Group_2793" data-name="Group 2793">
    <g id="Group_2792" data-name="Group 2792">
      <g id="Group_2788" data-name="Group 2788">
        <path id="Path_322" data-name="Path 322" d="M16.67,13.13A4.651,4.651,0,0,1,19,17v3h4V17C23,14.82,19.43,13.53,16.67,13.13Z" fill="#1f32fa" fill-rule="evenodd"/>
      </g>
      <g id="Group_2789" data-name="Group 2789">
        <circle id="Ellipse_36" data-name="Ellipse 36" cx="4" cy="4" r="4" transform="translate(5 4)" fill="#1f32fa"/>
      </g>
      <g id="Group_2790" data-name="Group 2790">
        <path id="Path_323" data-name="Path 323" d="M15,12a4,4,0,0,0,0-8,4.178,4.178,0,0,0-1.33.24,5.98,5.98,0,0,1,0,7.52A4.178,4.178,0,0,0,15,12Z" fill="#1f32fa" fill-rule="evenodd"/>
      </g>
      <g id="Group_2791" data-name="Group 2791">
        <path id="Path_324" data-name="Path 324" d="M9,13c-2.67,0-8,1.34-8,4v3H17V17C17,14.34,11.67,13,9,13Z" fill="#1f32fa" fill-rule="evenodd"/>
      </g>
    </g>
  </g>
</svg>
